<?xml version="1.0" encoding="UTF-8"?>
<svg id="Layer_2" data-name="Layer 2" xmlns="http://www.w3.org/2000/svg" viewBox="0 0 412.65 390.69">
  <defs>
    <style>
      .cls-1 {
        fill: #fff;
      }

      .cls-2 {
        fill: #231f20;
      }
    </style>
  </defs>
  <g id="Layer_1-2" data-name="Layer 1">
    <g>
      <g>
        <path class="cls-2" d="M0,191.97c.08-41.7,17.04-74.28,52.6-96.6,4.75-2.98,7.29-6.7,8.52-12.03,2.78-12.05,6.84-23.65,13.59-34.16,15.95-24.85,41.92-32.36,68.65-19.89,6.37,2.97,12.19,6.82,17.95,10.78,3.98,2.74,8.09,5.27,12.78,6.69,6.7,2.03,11.22,.51,15.1-5.29,1.19-1.79,2.2-3.73,3.07-5.7,10.57-23.84,34.34-30.31,55.53-15.05,1.89,1.36,3.63,2.92,5.36,4.48,7.3,6.54,9.36,6.72,17.12,.45,8.42-6.8,16.68-13.76,26.55-18.52,24.84-11.97,50.8-8.76,69.14,8.73,4.63,4.42,8.38,9.52,11.08,15.29,10.66,22.78,14.44,46.59,10.16,71.51-.88,5.12-2.56,10-5.72,14.24-2.64,3.54-6.03,5.93-10.58,5.49-3.82-.37-4.68,1.3-5.04,4.74-.71,6.78-1.69,13.55-4.54,19.87-5.53,12.26-14.52,14.38-24.39,5.41-3.36-3.06-4.15-2.46-4.86,1.71-1.01,5.93-2.94,11.67-6.6,16.54-1.39,1.85-.95,3.29-.39,5.06,1.6,5.07,4.09,9.83,4.96,15.15,.46,2.78,1.8,1.79,2.89,.45,1.04-1.29,1.86-2.75,2.82-4.12,7.09-10.12,18.54-11.14,27.4-2.48,2.65,2.6,4.49,5.76,6.46,8.85,.67,1.05,1.32,2.62,2.92,2.31,1.52-.3,1.74-1.92,2.02-3.16,.93-4.22,1.75-8.47,2.57-12.72,.91-4.75,2.02-9.44,4.37-13.73,4.66-8.51,11.47-9.41,17.91-2.04,7.17,8.19,9.86,18.37,11.64,28.78,.78,4.58,.99,9.26,1.4,13.9,1.46,16.35-4.73,29.69-16.55,40.51-6.42,5.87-10.86,12.64-14.05,20.8-13.99,35.73-38.77,62.93-69.4,85.12-25.13,18.2-52.55,32.01-83.6,35.8-37.1,4.52-73.39-.78-107-17.36C60.39,341.48,21,292.64,3.91,226.15,1.04,214.99-.11,203.54,0,191.97ZM337.15,90.47c4.82-3.27,9.4-3.56,14.57-.18,6.59,4.3,9.46,2.83,10.41-4.53,.04-.33,.05-.66,.1-.99,.13-1,.29-2.15,1.46-2.32,1.25-.19,1.68,.96,1.93,1.91,.88,3.38,1.74,6.76,2.45,10.17,.79,3.82,.36,7.91,2.93,12.18,2.88-7.06,3.21-13.85,3.38-20.61,.28-10.59-3.48-13.56-13.82-11.12-8.14,1.92-15.78,5.25-23.36,8.67-31.24,14.12-61.57,30.13-92.74,44.43-47.86,21.97-97.26,37.2-150.55,36.78-5.39-.04-10.79,.5-16.94,.82,4.39,5.53,7.77,10.85,12.69,14.89,4.63,3.81,8.16,3.62,12.16-.81,2.11-2.33,3.79-5.05,5.81-7.48,1.8-2.17,3.33-1.75,4.43,.77,1.06,2.43,1.92,5,3.3,7.23,2.25,3.63,5.11,6.75,9.94,6.37,4.58-.36,6.82-3.75,8.74-7.35,.62-1.16,.81-2.54,1.39-3.73,1.05-2.16,.4-6.06,3.06-6.24,2.77-.19,3.46,3.56,4.75,5.79,3.66,6.33,6.45,13.21,11.6,18.58,5.35,5.59,11.79,4.72,15.59-2.02,2.94-5.22,3.04-10.82,1.81-16.49-1.61-7.43-4.65-9.87-12.32-10.16-.59-.02-1.37-.05-1.21-1.05,6.42-1.7,10.45-1.43,14.26,.96,4.6,2.9,4.97,2.74,6.28-2.68,.19-.78,0-1.78,1.06-1.99,.97-.19,1.53,.55,1.89,1.29,1.09,2.24,2.18,4.48,3.14,6.78,3.16,7.55,6.48,15.04,12.49,20.84,6.6,6.36,12.44,5.13,15.71-3.36,3.05-7.94,3.24-16.28,2.5-24.63-.38-4.3-3.1-6.36-7.39-6.62-1.8-.11-3.9,.54-5.89-1.57,3.29-1.79,6.27-1.04,8.96-.34,6.31,1.63,11.15,.62,13.78-6,.41-1.02,1.1-2.09,2.95-2.49,1.91,5.69,3.72,11.5,5.81,17.21,2.36,6.43,5.13,12.71,10.16,17.58,4.8,4.65,9.35,3.89,12.42-2.09,1.12-2.19,1.9-4.62,2.48-7.03,2.04-8.51,2.18-17.18,1.52-25.83-.88-11.51-2.6-12.49-13.46-8.52-.97,.35-2.32,1.64-3.07,.22-.78-1.48,.72-2.5,1.86-3.05,6.1-2.93,12.1-2.91,18.13,.49,7.96,4.49,17.06-.16,18.3-9.18,.18-1.32,.26-2.65,.46-3.97,.12-.78,.02-1.81,1-2.08,1.3-.36,1.73,.79,2.08,1.65,1.77,4.3,3.42,8.66,5.2,12.97,3.69,8.93,7.2,18.01,14.11,25.07,4.76,4.86,9.37,3.94,11.2-2.56,3.85-13.73,3.3-27.69,.41-41.52-.95-4.55-4.41-5.93-8.87-4.75-1.93,.51-3.78,1.74-6.2,1.16,5.27-5.84,10.36-7.04,16.61-4.15,8.35,3.86,9.41,3.26,11.54-6.01,.83-3.58,2.18-6.96,6.1-8.37,1.3,2.7-1.06,4.76-1.29,7.24-1.41,14.98,3.56,28.46,9.42,41.76,.52,1.17,1.35,2.47,2.97,2.23,1.57-.24,2.03-1.73,2.34-2.95,.62-2.4,1.23-4.87,1.33-7.33,.46-10.97,.69-21.94-.52-32.89-1.07-9.72-4.74-12.18-13.35-8.97ZM42.91,156.2c3.68-5.02,9.65-6.59,15.7-3.89,5.24,2.35,10.57,2.83,16.07,2.58,53.04-2.4,104.33-12.38,153-34.46,31.08-14.1,61.22-30.16,92.35-44.16,13.34-6,26.61-12.4,41.43-14.05,10.02-1.12,10.03-1.02,7.61-10.94-6.06-24.84-25.61-39.02-49.46-35.71-12.6,1.75-23.35,7.65-32.85,15.83-7.35,6.33-15.36,11.24-25.05,12.68-26.21,3.91-51.91,10.29-77.79,15.81-9.82,2.09-18.75,.54-26.99-5.47-6.59-4.81-13.58-9.03-21.26-11.99-21.62-8.35-39.59-1.13-51.39,20.39-3.95,7.2-6.16,15.17-7.77,23.13-2.14,10.63-8.22,17.94-16.93,23.63-3.35,2.18-6.67,4.4-9.96,6.67-17.51,12.11-28.23,28.38-30.65,49.8-2.13,18.87-.74,37.57,2.34,56.21,15.64,94.46,103.43,162.1,198.69,151.77,50.7-5.5,92.78-28.46,124.79-68.7,8.71-10.94,15.46-23.07,20.4-37.67-7.58,3.3-13.89,6.39-19.85,10.26-2.5,1.62-4.13,3.89-5,6.65-6.34,20.18-20.34,33.68-38.4,43.31-27.66,14.74-57.27,19.15-88.13,15.02-21.94-2.94-41.84-10.83-58.01-26.58-1.41-1.38-3.33-2.52-3.75-5.07,3.23,.21,5.36,1.92,7.59,3.22,27.74,16.26,57.61,22.25,89.37,17.86,29.69-4.11,54.9-16.7,73.49-40.94,1.55-2.02,3.1-4.08,3.75-7.27-1.47,.38-2.26,.51-3,.77-57.27,20.03-114.76,19.22-172.18,1.12-26.34-8.31-50.29-21.14-69.43-41.75-2.4-2.58-4.23-7.36-8.17-6.33-3.95,1.03-3.73,6.2-5.19,9.65-1.1,2.62-.99,7.48-4.18,6.96-3.16-.51-1.87-5.12-1.73-7.92,.77-15.15,7.97-22.06,22.94-22.37,1.25-.03,2.62,.43,3.75-.43,0-.41,.12-.81-.02-1.02-.56-.82-1.16-1.62-1.82-2.36-11.87-13.35-20.67-28.54-27.05-45.17-.42-1.09-.87-2.17-1.43-3.19-1.01-1.86-1.54-4.69-3.92-4.74-2.53-.05-2.89,2.85-3.69,4.77-1.01,2.46-1.63,5.09-2.74,7.5-1.45,3.12-1.53,8.57-5.36,8.21-1.99-.19-.62-6.21-.18-9.58,1.07-8.1,3.75-15.64,9.33-22.82-3.61,.3-6.06,.5-9.26,.76Zm99.74,107.32c2.22-5.64-.32-12.41-5.83-15.71-3.42-2.05-6.4-1.83-8.28,2.1-1.07,2.25-2.28,4.27-5.16,3.69-2.89-.58-2.45-2.91-2.55-5.14-.22-4.89-6.46-10.47-10.14-8.61-3.38,1.71-5.23,.19-7.58-1.28-1.69-1.05-3.35-2.25-5.19-2.93-1.59-.59-3.74-1.92-5.02,.03-1.11,1.69,.85,2.97,1.86,4.16,6.72,7.99,14.83,14.35,23.82,19.56,29.68,17.21,62.31,23.71,96.03,25.8,36.48,2.27,72.09-3.14,107.02-13.38,20.07-5.89,39.42-13.53,55.72-27.14,15.91-13.29,23.76-29.77,18.68-50.84-.67-2.76-1.01-5.79-3.69-8.81-.96,10.75-1.84,20.58-2.74,30.65-2.6-.97-2.6-4.64-5.42-3.72-2.32,.75-2.08,3.17-2.4,5.1-.36,2.16-1.58,3.8-3.52,4.53-4.83,1.8-5.55,5.28-5.24,9.96,.61,9.07-1.62,11.1-10.61,10.03-3.98-.48-6.72,.37-8.45,4.25-1.87,4.21-5.34,5.82-9.98,5.74-2.88-.05-5.59-.71-8.27-1.4-3.9-.99-5.6-.46-5.88,4.21-.5,8.1-9.22,11.96-16.85,7.66,2.22-1.79,4.82-1.05,7.14-1.41,2.73-.42,5.11-1.33,4.97-4.48-.52-11.58-3.13-22.53-11.82-30.9-4.97-4.78-10.62-3.74-13.33,2.62-3.94,9.23-6.21,18.99-6.41,29.08-.09,4.57,1.5,8.26,7.07,8.33,.94,.01,2.26-.02,2.12,1.39-.12,1.3-1.51,1.27-2.37,1.18-4.47-.49-8.97-.86-13.35-1.8-3.65-.78-5.84,.17-7.87,3.35-3.61,5.65-15.05,7.97-20.89,4.42,4.01-1.99,8.29-1.51,12.33-2.22,2.63-.46,4.7-1.51,4.28-4.42-1.38-9.62-3.45-19.1-9.81-26.86-5.42-6.61-11.8-6.38-17.16,.28-6.13,7.62-7.46,23.33-2.61,31.75,.49,.86,1.48,1.71,.82,2.6-.61,.84-1.75,.43-2.75,.15-5.95-1.66-12-7.26-17.8,.3-.53-.66-2.32,1.6-2.09-1.83,.6-8.83-.76-17.71-6.9-24.87-5.99-6.98-13.77-6.18-18.46,1.71-2.16,3.64-3.24,7.62-3.95,11.76q-1.68,9.81,7.49,12.05c.27,.07,.49,.39,.75,.61-.92,2.51-2.97,1.99-4.59,1.58-2.4-.61-4.8-1.44-7-2.57-4.74-2.43-9.33-3.98-14.77-1.85-2.35,.92-5.46,1.31-8.21-1.83,4.45,.46,8.06,.36,8.63-4.73,.71-6.41-4.46-15.02-9.93-16.31-5.71-1.34-11.88,3.27-14.22,10.63-.2,.63-.41,1.27-.53,1.92-.44,2.43-1.68,3.43-4.22,2.72-1.58-.44-3.24-.57-4.9-.85Zm225.62-37.65c-.49-8.5-3.27-17.98-9.2-26.37-1.9-2.69-4.22-5.89-7.85-5.27-3.26,.56-3.91,4.3-4.8,7.08-3.9,12.33-5.64,25-4.97,37.92,.19,3.68-.29,8.7,4.16,9.75,4.23,.99,6.45-3.21,8.4-6.54,1.18-2.02,2.22-4,4.99-4.37,8.15-1.11,9.36-2.56,9.26-12.19Zm-49.98-26.15c-.24-4.16-1.32-9.03-3.02-13.72-.71-1.97-.47-5.76-3.24-5.16-2.28,.5,.49,3.29,.28,5.18-.22,1.96,.15,3.97,.23,5.97,.13,3.49,.18,6.97,.37,10.46,.09,1.68,.29,3.53,2.62,3.48,2.51-.05,2.79-1.89,2.76-3.86,0-.5,0-1,0-2.35Z"/>
        <path class="cls-2" d="M124.91,76.18c.73-1.55,.12-2.81-.14-4.1-.53-2.63-.32-5.19,2.32-6.48,2.51-1.22,4.88-.2,6.87,1.58,.61,.55,1.51,1.19,1.58,1.86,.72,7.06,5.97,7.21,11.35,8.54,10.49,2.6,17.08,10.91,24.03,19.18-13.99-3.19-27.77-4.67-41.57-.24-13.66,4.39-24.35,13.24-35.49,24.12,1.45-9.63,2.06-17.91,6.92-24.91,1.9-2.74,2.1-4.42-.58-6.66-2.73-2.27-6.66-5.12-3.75-8.99,2.94-3.9,7.2-1.71,10.86,.12,1.4,.7,2.35,2.39,4.73,2-.92-2.37-1.96-4.56-2.61-6.85-.64-2.25-1.08-4.81,1.18-6.44,2.37-1.72,4.72-.62,6.94,.75,2.81,1.73,4.08,5.25,7.35,6.51Z"/>
        <path class="cls-2" d="M259.17,79.74c-4.13-.49-9.24,.5-10.22-3.42-1.05-4.22,4.06-5.5,7.25-6.77,10.79-4.31,21.84-7.95,32.39-12.9,2.85-1.34,6.69-3.07,8.9,.85,2.19,3.87-.78,6.67-3.51,8.86-10.31,8.29-22.38,12.07-34.82,13.38Z"/>
        <path class="cls-2" d="M337.28,90.37c.01,.39,.16,.84,.01,1.15-.32,.69-.73,0-1.11-.04-.13-.86,.43-1.04,1.1-1.11Z"/>
      </g>
      <path class="cls-1" d="M56.65,168.17s19.32-2.4,24.06-2.7,60.7-.87,93.78-11.46,56.76-19.48,77.33-29.33c20.57-9.85,55.97-27.22,62.88-30.51,6.91-3.29,74.62-35.61,74.09-17.3s-.3,37.91-12.86,44.76,17.11,36.72,20.29,39.67,12.87,17.41,14.35,29.14-24.38,62.18-61.42,74.63-105.48,33.01-159.41,20.65-75.85-24.03-99.85-50.34c-24-26.31-33.24-67.2-33.24-67.2Z"/>
      <g>
        <path d="M112.82,254.37c-1.24,.33-2.79-.35-4.73-1.84-1.94-1.49-4.06-3.4-6.55-5.65-.16-.15-.42-.38-.76-.7-.35-.32-.73-.67-1.16-1.06-.42-.39-.83-.77-1.22-1.13-.39-.36-.71-.66-.96-.9-.5-.48-1.06-1.03-1.69-1.67-5.17-5.31-11.97-13.07-17.32-21.39-5.35-8.33-9.57-16.99-12.81-24.81-2.07-4.99-3.74-9.61-5.06-13.57-1.32-3.96-2.25-7.18-2.78-9.48-.15-.66-.27-1.26-.34-1.78-.07-.52-.07-.92,.03-1.24,.13-.38,.43-.61,1.01-.81,.42-.11,1.18-.25,2.61-.45,1.43-.2,3.21-.44,5.2-.69,2-.26,4.01-.5,5.84-.71,1.83-.21,3.09-.33,3.87-.4,2-.17,4.34-.3,4.57-.12,.24,.18,.61,.5,1.11,1.08,.5,.59,1.12,1.44,1.85,2.69,.72,1.25,1.49,2.87,2.19,4.89,.29,.88,.55,1.8,.78,2.76,.23,.96,.34,2,.5,3.14,.46,2.76,1.52,6.28,2.86,10.23,1.34,3.95,2.78,7.93,3.86,11.42,.98,3.16,1.51,5.6,1.91,7.79,.29,1.58,.49,3,.52,4.14,.03,1.15,0,2.16-.09,2.99,1.68,2.28,3.58,5.14,5.52,8.49,1.95,3.35,3.72,6.2,5.46,9.55,1.74,3.35,3.29,6.62,4.68,9.69,1.39,3.07,1.87,5.04,2.11,6.7,.12,1.03,.06,1.74-.16,2.16-.22,.41-.51,.64-.86,.69Zm-31.76-55.47c1.67,1.44,3.09,2.13,4.1,2.08,1.01-.05,1.24-.6,1.26-1.72,.02-.6-.09-1.44-.31-2.54-.22-1.09-.54-2.31-.92-3.62-.38-1.31-.82-2.65-1.27-4-.45-1.35-.92-2.62-1.37-3.81-.46-1.19-.83-2.05-1.17-2.64-.34-.59-.6-1.03-.81-1.24-.19-.18-.86-.18-1.54-.01-.68,.17-1.4,.55-2.07,1.15-.67,.6-1.25,1.39-1.67,2.39-.42,1-.55,2.21-.34,3.66,.14,.97,.45,2.05,.93,3.25,.48,1.2,1.06,2.31,1.71,3.3,.54,.82,1.13,1.55,1.75,2.18,.61,.63,1.19,1.16,1.72,1.58Zm9.72,26.19c.73,1.31,1.49,2.43,2.26,3.37,.78,.94,1.53,1.73,2.25,2.39,.72,.66,1.36,1.15,1.92,1.46,.56,.31,1.08,.59,1.48,.71,.43,.13,.87,.09,1.2-.04,.32-.13,.38-.48,.36-1.07-.02-.37-.12-.89-.3-1.57-.18-.67-.46-1.47-.81-2.38-.41-1.06-.99-2.21-1.8-3.82-.92-1.82-1.77-3.29-2.49-4.36-.72-1.08-1.35-1.88-1.89-2.43-.54-.54-1.17-.82-1.73-.85-.56-.03-1.06,.14-1.48,.47-.51,.41-.8,1.35-.78,2.79,.02,1.44,.62,3.17,1.82,5.33Z"/>
        <path d="M141.6,270.97c-.85-.07-1.72-.28-2.54-.54-.83-.27-1.67-.61-2.48-.94-1.9-.75-3.96-1.96-6-3.7-.9-.77-1.83-1.77-2.84-3-1.01-1.23-2.04-2.79-3.16-4.65-.92-1.52-1.88-3.23-2.87-5.13-.99-1.9-2.21-4.08-3.51-6.48-1.81-3.33-3.54-6.78-5.21-10.25-1.66-3.47-3.22-6.63-4.97-10.53-.45-1.01-1.29-2.87-2.5-5.51-1.22-2.65-2.58-5.57-3.87-8.47-1.28-2.9-2.35-5.6-3.7-8.82-1.35-3.21-2.67-6.37-3.75-9.27-1.08-2.9-1.83-5.3-2.28-7.21s-.58-3.12-.62-3.84c-.01-.14-.06-.42-.11-.8-.05-.38-.06-.63-.06-.77,.03-.52,.15-1.48,.24-2.84,.09-1.36,.15-2.77,.21-4.18,.06-1.4,.11-2.65,.17-3.73,.06-1.08,.15-1.77,.25-2.15,.13-.48,.29-.9,.49-1.27,.19-.37,.43-.67,.72-.92,.57-.41,1.31-.68,2.21-.85,.9-.16,1.85-.23,2.86-.18,1.01,.05,2.01,.18,2.99,.42,.99,.24,1.86,.56,2.5,.99,.46,.31,.88,.77,1.25,1.34,.37,.57,.68,1.22,.86,1.94,.25,1,.34,2.14,.31,3.33s-.14,2.39-.32,3.55c-.41,2.73-1.37,5.24-1.33,8.27,.04,3.03,1.05,6.76,2.53,10.68,.48,1.28,1.11,2.83,1.88,4.64,.76,1.8,1.59,3.59,2.43,5.3,.84,1.72,1.66,3.23,2.45,4.54,.79,1.31,1.48,2.22,2.2,2.83,.62,.53,1.23,.88,1.75,1.04s1.06,.28,1.59,.35c.9,.12,1.78,.09,2.63-.08,.85-.17,1.69-.36,2.53-.58,.84-.21,1.74-.36,2.65-.48,.91-.12,1.94-.05,3.01,.23,.9,.24,1.9,.74,3,1.56,1.11,.82,2.23,1.96,3.39,3.52,1.17,1.56,2.39,3.47,3.62,5.77,1.23,2.29,2.38,4.65,3.32,6.96,2.36,5.77,3.7,10.05,4.83,15.25,1.13,5.2,1.99,10.58,1.55,14.49-.37,3.27-1.24,5.74-2.36,7.4-.91,1.36-1.89,2.16-2.91,2.44s-2.05,.41-3.02,.33Z"/>
        <path d="M185.9,274.67c-3.23,2.82-6.44,4.24-9.45,4.52-3.01,.28-5.61-.54-7.75-2.37-2.49-2.12-4.47-5.74-6.57-10.66-.85-1.94-1.53-3.97-2.68-6.74-1.15-2.77-2.26-5.7-3.41-8.61-1.26-3.18-2.58-6.52-3.87-9.82-1.29-3.3-2.71-6.81-4.45-10.97-2.71-6.47-5.44-12.36-7.02-16.86-1.57-4.5-4.53-10.46-5.7-15.66-2.73-12.07,.58-16.4,5.01-28.49,.07-.16,.25-.5,.54-1.02,.28-.52,.46-.85,.53-1.01,.4-1.01,.93-1.9,1.6-2.69,.67-.79,1.38-1.38,2.05-1.82,.47-.31,.95-.55,1.43-.66,.48-.1,.94-.19,1.36-.25,.26-.04,.79-.08,1.57-.13,.78-.05,1.3-.05,1.54-.03,.68,.05,1.4,.08,2.07,.15,.67,.07,1.33,.28,1.9,.64,.45,.29,.83,.75,1.14,1.33,.31,.59,.45,1.35,.47,2.24,.02,.97-.08,2.08-.36,3.26-.29,1.18-.62,2.31-1,3.37-1.48,4.24-4.37,7.83-5.77,11.88-1.4,4.05-.44,9.58,1.38,15.24,.95,2.95,2.17,5.93,3.35,8.69,1.18,2.77,2.38,5.2,3.47,7.15,.86,1.54,2.24,3.43,3.64,5.14,1.4,1.72,2.76,3.14,4.03,4.06,1.11,.81,2.21,1.41,3.26,1.78,1.05,.37,2.02,.47,2.76,.2,.85-.31,1.46-1.47,1.76-3.19,.3-1.72,.29-3.67,.12-5.59-.19-2.13-.21-3.86-.82-6.21-.61-2.36-1.53-4.98-2.58-7.69-2.45-6.37-5.13-13.21-5.46-18.43-.33-5.22,2.61-8.98,3.67-13.97,.39-1.85,.87-3.76,1.47-5.69,.59-1.93,1.27-3.52,2.08-4.77,.46-.73,.92-1.33,1.38-1.8,.46-.47,.87-.84,1.41-1.17,1.3-.89,2.61-1.58,3.9-2.05,1.29-.47,2.54-.64,3.58-.39,.61,.15,1.19,.59,1.67,1.25,.49,.67,.81,1.62,.95,2.85,.47,4.29,.28,9.49-1.47,14.47-1.23,3.48-2.99,6.43-2.47,10.77,.52,4.34,2.38,9.44,4.39,14.39,1.49,3.67,3.03,7.34,4.15,10.56,1.11,3.22,1.59,5.56,2.76,9.09,2.31,6.93,5.15,17.23,5.32,23.37,.17,6.13-.7,12.74-2.02,18.58-.76,3.38-2.14,6.1-3.75,8.22-1.61,2.12-3.34,3.98-5.09,5.54Z"/>
        <path d="M217.9,286.82c-2.31,.3-4.27-.21-5.96-1.47-1.69-1.26-3.16-3.11-4.55-5.53-.39-.67-.77-1.41-1.13-2.21-.36-.8-.67-1.73-.95-2.78-.27-1.05-.48-2.28-.63-3.7s-.08-2.95-.23-5.02c-.15-2.08-.17-4.7-.15-7.81,.02-3.1,.03-6.2,0-9.2-.03-3.01-.1-5.73-.19-8.13-.1-2.41-.4-5.41-.59-7.62-.14-1.57-.21-2.96-.16-4.14,.05-1.18,.25-1.98,.61-2.28,.43-.35,1.1-.32,1.83,.09s1.51,1.06,2.32,1.96c2.35,2.54,4.6,5.06,6.66,7.43,2.07,2.38,3.83,3.67,5.6,4.93,.6,.42,1.2,.79,1.77,1.1,.58,.31,1.16,.59,1.71,.77,.62,.21,1.19-.2,1.62-1.12,.43-.93,.57-2.22,.4-3.72-.12-1.07-.6-3.06-1.34-4.76-.74-1.7-1.44-2.88-2.01-3.48-.73-.77-1.46-1.41-2.14-1.92-.68-.51-1.35-.98-2.01-1.41-2.43-1.72-4.93-3.5-7.42-5.25-2.5-1.75-5.16-4.11-7.64-6.45-1.54-1.42-2.81-2.69-4.44-4.63-1.63-1.94-3.4-4.52-5.2-7.71-2.37-4.19-4.75-9.11-5.98-14-1.23-4.89-1.13-9.11,.9-12.12,2.03-3.01,4.34-6.59,6.21-10.26,1.87-3.67,3.47-7.05,5.11-9.85,1.43-2.44,2.88-4.5,4.31-6.13,1.43-1.63,2.84-3.02,4.2-4.1,2.13-1.69,4.23-2.85,6.22-3.45,1.99-.6,3.87-.57,5.46,.25,.88,.45,1.74,1.22,2.54,2.2,.8,.98,1.48,2.42,1.98,4.31,.39,1.21,.65,2.73,.73,4.52,.08,1.79-.06,3.76-.51,5.8-.4,1.82-1.07,3.69-2.05,5.52-.99,1.83-2.39,3.33-3.28,4.93-.89,1.6-1.5,3.54-1.86,5.79-.36,2.25-.44,4.58-.48,6.84-.03,2.26-.04,4.21-.19,5.76-.16,1.55-.56,2.44-1.1,2.73-.35,.19-.89,.06-1.57-.48-.68-.54-1.41-1.26-2.17-2.16-1.56-1.77-3.09-3.92-4.3-6.29-1.21-2.37-2.09-4.4-2.65-6.06-.34-1.08-.57-1.92-.76-2.58-.19-.66-.4-1.04-.79-1.26-.59-.33-1.56,.02-2.9,1.01-1.35,.99-2.58,2.27-3.36,4.27-.78,1.99-.98,4.44-.47,7.37,.51,2.93,1.69,5.93,3.27,8.81,1.02,1.84,2.07,3.35,3.07,4.54,1,1.19,1.95,2.12,2.85,2.81,2.25,1.86,4.3,3.12,6.18,3.85,1.89,.73,3.8,1.61,5.62,2.41,1.17,.51,2.43,1.11,3.63,1.77,1.19,.67,2.33,1.47,3.7,2.93,1.84,1.97,4,4.94,6.29,8.92,2.28,3.98,4.56,8.79,5.97,13.78,2.96,8.73,1.9,20.63-.83,29.22-.81,3.05-2.09,5.69-3.46,8.26-1.37,2.57-2.76,4.68-4.09,6.35-2.22,2.78-4.33,4.7-6.19,5.86-1.87,1.16-3.56,1.81-5.05,2.01Z"/>
        <path d="M267.28,274.18c-3.97,4.8-7.61,7.86-10.62,9.43-3.01,1.57-5.29,1.59-6.56,.13-1.5-1.72-1.85-5.81-1.94-11.91-.05-2.4,.1-5.11-.05-8.5-.15-3.39-.29-6.98-.59-10.52-.32-3.82-.79-7.83-1.42-11.62-.63-3.78-1.64-7.93-3.54-13.4-2.96-8.54-6.48-15.91-8.16-20.74-1.67-4.83-6.1-12.48-8.25-19.57-5-16.51,4.7-23.79,7.67-40.71,.07-.27,.24-.86,.49-1.78,.25-.91,.4-1.51,.46-1.79,.37-1.79,.8-3.42,1.29-4.88,.5-1.46,1.01-2.6,1.45-3.42,.33-.61,.65-1.05,.96-1.24,.31-.19,.61-.35,.88-.46,.17-.07,.5-.15,1-.23,.49-.08,.83-.07,.98-.03,.4,.1,.89,.18,1.31,.32,.42,.15,.84,.54,1.18,1.17,.28,.53,.5,1.32,.68,2.31,.17,1,.23,2.26,.18,3.74-.05,1.6-.2,3.37-.52,5.22-.32,1.85-.7,3.59-1.15,5.18-1.75,6.38-6.25,11.07-8.11,16.27-1.87,5.2,.22,12.68,3.37,20.05,1.65,3.84,3.59,7.61,5.29,10.91,1.71,3.31,3.18,5.96,4.18,7.77,.78,1.42,2.38,3.58,3.86,5.5s2.87,3.51,4.07,4.47c1.05,.83,2.05,1.39,2.94,1.65,.9,.26,1.71,.15,2.2-.34,.61-.61,.8-2.29,.67-4.61-.13-2.33-.58-4.84-1.1-7.08-.58-2.5-.71-4.14-1.76-6.78-1.05-2.65-2.61-5.77-4.32-9.08-4.01-7.78-8.44-16.62-8.72-23.06-.29-6.43,4.9-10.71,6.46-17.8,.58-2.63,1.12-5.45,1.69-8.4,.57-2.95,1.15-5.45,1.85-7.44,.4-1.16,.8-2.12,1.22-2.86,.41-.75,.84-1.37,1.28-1.85,1.07-1.33,2.17-2.34,3.3-3,1.12-.66,2.29-.84,3.23-.41,.58,.26,1.14,.97,1.62,2,.48,1.03,.81,2.47,.96,4.3,.48,6.33,.16,13.56-2.72,19.74-2.02,4.33-5,7.45-4.21,12.72,.79,5.26,3.75,11.6,6.89,17.55,2.33,4.43,4.75,8.74,6.42,12.26,1.68,3.51,2.16,5.6,3.88,9.53,3.62,8.24,7.53,19.12,7.14,28.29-.29,6.75-2.49,15.02-5.33,22.61-1.63,4.39-3.56,8.28-5.63,11.54-2.07,3.26-4.22,6.24-6.38,8.87Z"/>
        <path d="M289.19,279.8c-1.8,1.32-3.36,2.1-4.66,2.36-.42,.09-.85,.04-1.27-.14-.42-.18-.77-.47-1.05-.88-.27-.41-.38-1.06-.31-1.96,.06-.9,.46-2.19,1.16-3.89,.88-2.15,1.83-4.49,2.83-7,1.01-2.5,1.9-4.98,2.68-7.41,3.13-13.73,5.79-25.49,3.19-37.63-2.53-11.8-8.83-25.01-14.97-37-1.23-2.39-3.75-6.82-6.46-13.27-2.71-6.45-4.66-13.25-2.61-18.18,2.05-4.93,6.42-9.39,8.16-15.06,1.74-5.67,2.42-10.23,2.99-12.89,.25-1.16,.6-2.34,1.06-3.53,.46-1.19,.94-2.37,1.45-3.53,.51-1.15,1.01-2.16,1.52-3.01,.5-.85,.93-1.51,1.27-1.98,1.75-2.21,3.51-3.7,5.25-4.45,1.74-.75,3.36-.33,4.58,1.3,.86,1.15,1.34,3.77,1.33,7.56-.06,2.08-.35,5.52-1.32,9.93-.97,4.41-2.43,8.81-4.89,12.68-2.46,3.87-5.45,6.55-5.69,10.57-.25,4.02,.87,7.52,1.56,9.61-1.19-7.68,.09-13.59,5.08-18.1,4.98-4.51,8.54-10.23,11.35-16.38,.96-2.06,1.83-4.08,2.64-6.02,.81-1.94,1.57-3.64,2.24-5.05,.47-.99,.91-1.72,1.32-2.14,.42-.42,.76-.36,1.04-.06,.21,.22,.45,.8,.55,1.74,.09,.94,.15,2.04,.16,3.29,.06,2.95-.16,6.27-.94,9.64-.54,2.37-1.35,4.75-2.59,6.93-1.24,2.19-3.28,3.8-4.03,6.03-.35,1-.5,2.14-.47,3.39,.03,1.25,.23,2.65,.52,4.14,.35,1.79,.73,3.37,.95,4.56,1.02,6.49,3.42,13.6,5.14,19.78,1.72,6.17,1.67,9.99,2.45,15.84,5.86,7.28,11.32,16.2,14.6,24.92,3.45,9.18,3.63,12.45,2.43,21.68-.12,1.13-.32,2.41-.63,3.85-.31,1.44-.76,2.9-1.25,4.32-.73,2.1-1.55,4.19-2.53,6.09-.98,1.9-2.02,3.78-3.11,5.61-1.09,1.84-2.44,3.96-4.1,6.35-1.66,2.39-3.38,4.67-5.14,6.84-1.77,2.17-3.41,4-4.9,5.52-1.48,1.52-2.46,2.31-2.9,2.42-.6,.15-.66-.45-.21-1.84,.44-1.4,1.12-3.12,1.92-5.19,.67-1.72,2.31-5.44,4.24-11.13,1.93-5.69,3.37-12.1,4.08-18.52,.71-6.42,.58-11.86-.22-16.07-.8-4.21-2.44-8.6-3.56-11.27,.1,1.9,0,3.56-.23,4.98-.24,1.42-.44,3.16-.75,4.27,.19,1.31,.52,3.63,.44,7.61-.08,3.99-.63,8.76-1.74,14.15-1.11,5.4-2.69,10.71-4.65,15.54-1.95,4.83-3.73,8.25-4.87,10.27-1.05,1.85-2,3.28-2.79,4.3-1.05,1.37-2.04,2.49-2.94,3.37-.9,.88-1.71,1.59-2.4,2.14Z"/>
        <path d="M352.82,251.57c-2.1,2.9-4.25,5.48-6.31,7.72-2.06,2.24-3.86,3.96-5.35,5.22-1.49,1.25-2.58,1.97-3.28,2.19s-.76-.26-.33-1.44c.26-.71,.9-1.99,1.87-3.81,.97-1.83,2.14-3.98,3.44-6.46,1.91-3.7,3.8-7.68,5.63-11.83,1.82-4.15,3.23-8.34,4.35-12.31-.88-.49-1.95-.46-3.15,.09-1.21,.55-2.43,1.1-3.63,1.63-.1,.03-.26,.08-.48,.15-.22,.07-.46,.15-.71,.23-.25,.08-.5,.16-.74,.23-.24,.07-.39,.12-.46,.14-1.14,3.8-2.51,7.84-4.27,11.79-1.77,3.95-3.79,7.81-5.98,11.45-1.19,2-2.41,3.87-3.64,5.6-1.23,1.73-2.4,3.22-3.48,4.5-1.39,1.64-2.54,2.73-3.42,3.31-.87,.58-1.55,.84-2.02,.77-.47-.07-.7-.46-.71-1.2-.01-.74,.2-1.73,.62-2.98,.65-2.02,1.95-5.12,3.65-9.21,2.08-4.98,4.18-10.4,5.87-16.01,1.69-5.62,2.75-11.1,3.58-15.51,2.28-12.11-3.54-25.55-8.17-36.57-4.15-9.89-10.68-19.51-15.54-28.75-4.36-8.3-6.94-17.28-2.74-22.11,4.2-4.82,8.13-12.08,9.87-19.96,.73-3.26,1.29-6.53,1.82-9.71,.52-3.17,1-5.99,1.54-8.38,.68-2.99,1.44-5.41,2.25-7.22,.8-1.78,1.61-3.02,2.47-3.67,.86-.65,1.85-1.19,2.8-1.38,1.02-.2,2.22,.2,3.29,1.03,1.07,.83,2.11,2.37,3.08,4.59,1.4,3.17,2.68,8.02,3.08,13.97,.39,5.95,.02,11.66-1.94,16.18-2.67,6.16-6.8,10.12-2.98,18.12,4.21,8.83,10.99,17.33,17.19,24.81,4.55,5.49,6.19,7.3,10.58,14.85,4.39,7.56,8.86,19.66,9.17,24.68,.13,2.18-.02,4.8-.48,7.76-.46,2.97-1.26,6.29-2.39,9.88-1.41,4.46-3.32,9.36-5.85,14.31-2.53,4.96-5.33,9.47-8.11,13.3Zm-8.18-48.62c1.15-1.04,2.46-1.74,3.92-2.1,1.46-.35,3-.56,4.59-.61-2.28-6.17-5.57-12.26-8.36-16.8-2.79-4.54-4.06-6.08-6.55-9.15-1.66-2.04-3.84-4.65-6.21-7.56-2.36-2.9-4.79-5.84-7.01-8.53-1.01-1.28-2.05-2.49-3.12-3.62-1.07-1.13-1.69-1.43-1.76-1.02-.09,.54,.46,2.29,1.7,5,1.24,2.71,2.27,4.72,2.96,6.05,3.86,6.91,6.87,11.68,9.3,15.85,2.43,4.17,7.56,13.22,10.56,22.49Z"/>
        <path d="M352.51,263.13c-1.02,.62-1.8,.92-2.27,.9-.48-.01-.28-.56,.11-1.39,.28-.58,.75-1.36,1.32-2.33,.57-.96,1.38-2.21,2.36-3.78,1.08-1.71,2.4-3.83,3.9-6.3,1.5-2.48,2.98-5.04,4.4-7.66,1.71-3.16,3.29-6.33,4.67-9.5,1.37-3.15,2.58-6.24,3.61-9.2,1.15-3.31,2.89-8.62,3.72-14.23,.83-5.6-.02-13.01-4.66-23.59-4.64-10.57-6.92-14.23-12.13-21.4-5.78-7.95-12.44-17.31-15.61-26.7-2.79-8.27,2.53-12.14,6.16-17.45,3.63-5.31,4.76-10.71,5.55-14.09,1.17-4.99,1.99-9.77,2.88-13.88,.38-1.65,.79-3.09,1.25-4.3,.47-1.21,1.01-2.22,1.42-2.93,.36-.63,.91-1.41,1.7-2.14,.79-.73,1.6-1.41,2.44-2.05,.84-.63,1.64-1.15,2.39-1.55,.75-.4,1.3-.54,1.62-.42,.56,.22,1.12,.82,1.63,1.7,.51,.88,.93,2.2,1.26,3.91,.41,2.09,.72,4.73,.78,7.79,.06,3.06-.03,6.15-.37,9.16-1.25,9.78-7.68,15.71-10.02,21.03-2.35,5.32,3.16,14.76,9.75,23.29,6.6,8.54,12.57,14.17,16.14,17.92,7.19,7.56,11.06,17.16,14.87,26.9-.47-2.51-1.65-6.93-4.18-12.55-2.53-5.63-6.15-11.67-8.35-14.64-2.19-2.97-4.42-5.45-9.04-11.49-4.63-6.04-9.4-13.07-11.75-18.9-2.35-5.83-2.14-10.1,.31-12.55,2.45-2.45,5.38-4.55,6.47-6.07,2.17-3.01,3.75-6.79,4.92-11.09,1.16-4.29,1.95-8.76,2.66-13.04,.34-2.14,.67-4.02,1.01-5.59,.34-1.56,.66-2.82,.97-3.78,.52-1.51,1-2.38,1.43-2.6,.43-.22,.84-.11,1.12,0,.27,.11,.69,.62,.94,1.68,.25,1.07,.37,3.36,.36,6.78,0,2.16-.06,4.64-.25,7.38-.19,2.74-.47,5.36-.9,7.81-.46,2.64-1.2,7.16-3.88,11.95-2.68,4.79-10.16,6.81-10.37,12.48-.22,5.67,5.7,14.7,12.16,22.51,6.47,7.81,9.22,9.38,13.05,14.23,3.83,4.85,9.15,14.23,11.33,21.57,2.18,7.34,1.19,8.15,.92,9.62-.57,3.05-1.87,6.98-3.82,11.45-1.96,4.47-4.61,9.51-7.91,14.75-1.95,3.1-4.2,6.34-6.71,9.66-2.52,3.33-4.94,6.19-7.11,8.61-2,2.22-3.82,4.09-5.41,5.64-1.59,1.55-2.92,2.77-3.96,3.66-1.03,.89-1.66,1.35-1.87,1.36-.21,.01,0-.44,.64-1.37,.94-1.44,3.11-4.32,6.07-8.76,5.85-8.72,9.98-17.54,12.33-24.99,2.35-7.46,2.98-14.07,1.97-17.93-2.28-8.72-7.49-18.83-13.1-26.13-4.87-6.33-7.16-7.6-13.41-15,1.39,1.98,3.73,5.12,5.78,7.92,2.05,2.81,2.93,4.02,6.09,9.71,3.17,5.7,7.38,14.23,8.9,22.66,1.52,8.44,.02,9.5-1.63,15.06-1.65,5.55-4.06,11.35-6.61,16.56-2.55,5.22-4.94,9.17-6.52,11.66-1.95,3.08-4.13,6.16-6.47,9.16-2.34,3.01-4.57,5.58-6.6,7.71-2.23,2.35-4.02,3.97-5.26,4.91-1.23,.94-2.31,1.71-3.19,2.25Z"/>
      </g>
    </g>
  </g>
</svg>